<svg width="310" height="79" viewBox="0 0 310 79" fill="none" xmlns="http://www.w3.org/2000/svg">
  <path d="M4.6875 64H32.8125V57.125H12.8125V18.75H4.6875V64ZM60.625 49.75C60.625 54.9375 56.875 57.5 53.375 57.5C49.5 57.5 46.9375 54.75 46.9375 50.4375V30.0625H38.9375V51.6875C38.9688 59.8125 43.5938 64.4375 50.3125 64.4375C55.375 64.4375 58.9375 61.7812 60.5 58H60.875V64H68.5625V30.0625H60.625V49.75ZM91 64.6875C99.5312 64.6875 104.969 59.5938 105.562 52.4375H97.9375C97.2188 56.0938 94.5938 58.1562 91.0625 58.1875C86.0625 58.1562 82.8125 54 82.8125 47C82.8125 40.1562 86.125 36.0312 91.0625 36C94.9375 36.0312 97.3125 38.5 97.9375 41.75H105.562C105 34.4375 99.2188 29.625 91 29.625C81.0625 29.625 74.75 36.7812 74.75 47.1875C74.75 57.4375 80.875 64.6875 91 64.6875ZM111.562 64H119.562V52.5625L122.5 49.4375L132.938 64H142.438L128.469 44.6875L141.625 30.0625H132.312L120.125 43.6875H119.562V18.75H111.562V64ZM151.562 76.75C157.938 76.7188 161.5 73.5312 163.438 68.125L177.062 30.0625H168.625L160.75 55.6875H160.375L152.5 30.0625H144.062L156.438 64.6875L155.75 66.5C154.375 70.1562 152.75 70.2812 150.812 70.3125C149.75 70.2812 148.406 70.2812 147.438 70.1875V76.5625C148.469 76.6875 149.969 76.7188 151.562 76.75ZM178.312 25.5625H192.312V64H200.438V25.5625H214.375V18.75H178.312V25.5625ZM216.812 64H224.812V44C224.812 39.7188 228.062 36.6562 232.5 36.625C233.812 36.6562 235.469 36.875 236.188 37.125V29.75C235.438 29.6562 234.188 29.5625 233.312 29.5625C229.406 29.5625 226.156 31.7812 224.938 35.6875H224.562V30.0625H216.812V64ZM254.875 64.6875C262.75 64.6875 268.188 60.8125 269.625 54.9375H261.812C260.781 56.9688 258.438 58.4688 254.938 58.4375C249.781 58.4688 246.375 55.0312 246.25 49.25H269.938V46.75C269.938 34.8438 262.75 29.625 254.438 29.625C244.75 29.625 238.375 36.75 238.375 47.25C238.375 57.875 244.656 64.6875 254.875 64.6875ZM246.281 43.8125C246.562 39.5 249.781 35.8125 254.562 35.8125C259.156 35.8125 262.281 39.1875 262.312 43.8125H246.281ZM291.188 64.6875C299.062 64.6875 304.5 60.8125 305.938 54.9375H298.125C297.094 56.9688 294.75 58.4688 291.25 58.4375C286.094 58.4688 282.688 55.0312 282.562 49.25H306.25V46.75C306.25 34.8438 299.062 29.625 290.75 29.625C281.062 29.625 274.688 36.75 274.688 47.25C274.688 57.875 280.969 64.6875 291.188 64.6875ZM282.594 43.8125C282.875 39.5 286.094 35.8125 290.875 35.8125C295.469 35.8125 298.594 39.1875 298.625 43.8125H282.594Z" fill="#53B860"/>
  <path d="M38.9059 8.58362L37.9552 10.7295C33.379 21.0585 25.5171 23.1882 18.3841 20.028L16.3369 19.1209C17.9969 15.9904 19.873 14.4818 23.5375 13.3252C25.3397 12.7567 25.5223 12.0482 24.7162 12.1442C19.1653 12.8038 15.4214 15.3602 12.8318 20.9437L12.6527 21.3392L10.5 20.3855C11.1479 18.9231 11.8608 17.6512 12.6464 16.5464C13.014 15.0483 13.7238 13.109 14.7782 10.7292C17.4035 4.80347 24.3505 2.13494 30.2951 4.76868C32.4478 5.72241 34.1251 7.74907 38.9059 8.58362Z" fill="#53B860"/>
</svg>
