<svg width="32" height="32" viewBox="0 0 32 32" fill="none" xmlns="http://www.w3.org/2000/svg">
<rect width="32" height="32" rx="3" />
<path d="M11.26 24H20.26V21.8H13.86V9.52002H11.26V24Z" fill="#53B860"/>
<path d="M22.2099 6.26678L21.9057 6.95345C20.4413 10.2587 17.9255 10.9402 15.6429 9.92896L14.9878 9.63872C15.519 8.63695 16.1194 8.15419 17.292 7.78408C17.8687 7.60216 17.9271 7.37544 17.6692 7.40615C15.8929 7.61724 14.6948 8.43529 13.8662 10.222L13.8089 10.3486L13.12 10.0434C13.3273 9.57542 13.5554 9.16841 13.8069 8.81486C13.9245 8.33548 14.1516 7.71488 14.489 6.95337C15.3291 5.05713 17.5521 4.2032 19.4544 5.046C20.1433 5.35119 20.68 5.99972 22.2099 6.26678Z" fill="#53B860"/>
</svg>
